<svg width="128" height="128" viewBox="0 0 128 128" fill="none" xmlns="http://www.w3.org/2000/svg">
<path d="M0 64.3697C0.505597 62.5605 1.5272 60.9378 2.94 59.6997C4.21783 58.6536 5.7881 58.0285 7.43531 57.9103C9.08251 57.7922 10.7259 58.1867 12.14 59.0397C17.2812 61.9705 21.9366 65.6813 25.94 70.0397C30.8453 75.1932 35.2579 80.7943 39.12 86.7697C39.29 87.0297 39.48 87.2697 39.68 87.5397C41.51 84.1097 43.22 80.6897 45.12 77.3697C56 58.2297 70 41.8297 88.16 29.2097C96.9786 23.1449 106.536 18.2318 116.6 14.5897C122.36 12.4697 127.68 16.4097 127.82 21.4997C127.854 21.6526 127.915 21.7982 128 21.9297V22.1697C127.89 22.6597 127.8 23.1697 127.68 23.6397C127.398 25.0175 126.753 26.2952 125.813 27.3411C124.872 28.3869 123.67 29.1631 122.33 29.5897C113.247 32.7806 104.647 37.2054 96.77 42.7397C83.5849 52.1286 72.3443 63.9839 63.67 77.6497C57.3472 87.2605 52.251 97.6242 48.5 108.5C48.0666 109.863 47.2615 111.079 46.175 112.01C45.0885 112.941 43.7639 113.55 42.35 113.77C42.1313 113.831 41.9174 113.908 41.71 114H40.27C40.17 113.94 40.08 113.84 39.97 113.82C38.5755 113.637 37.2519 113.097 36.1271 112.253C35.0024 111.408 34.1147 110.288 33.55 109C29.3652 100.704 24.2957 92.8854 18.43 85.6797C14.67 81.1497 10.68 76.8097 5.56 73.7997C2.92 72.2497 0.87 70.4597 0 67.4797V64.3697Z" fill="#FF4081"/>
</svg>
