<svg width="128" height="128" viewBox="0 0 128 128" fill="none" xmlns="http://www.w3.org/2000/svg">
<path d="M0 64.3702C0.505597 62.561 1.5272 60.9382 2.94 59.7002C4.21783 58.654 5.7881 58.029 7.43531 57.9108C9.08251 57.7927 10.7259 58.1872 12.14 59.0402C17.2812 61.971 21.9366 65.6818 25.94 70.0402C30.8453 75.1937 35.2579 80.7948 39.12 86.7702C39.29 87.0302 39.48 87.2702 39.68 87.5402C41.51 84.1102 43.22 80.6902 45.12 77.3702C56 58.2302 70 41.8302 88.16 29.2102C96.9786 23.1454 106.536 18.2323 116.6 14.5902C122.36 12.4702 127.68 16.4102 127.82 21.5002C127.854 21.6531 127.915 21.7987 128 21.9302V22.1702C127.89 22.6602 127.8 23.1702 127.68 23.6402C127.398 25.018 126.753 26.2957 125.813 27.3415C124.872 28.3874 123.67 29.1636 122.33 29.5902C113.247 32.7811 104.647 37.2059 96.77 42.7402C83.5849 52.1291 72.3443 63.9843 63.67 77.6502C57.3472 87.261 52.251 97.6247 48.5 108.5C48.0666 109.864 47.2615 111.079 46.175 112.01C45.0885 112.941 43.7639 113.551 42.35 113.77C42.1313 113.831 41.9174 113.908 41.71 114H40.27C40.17 113.94 40.08 113.84 39.97 113.82C38.5755 113.637 37.2519 113.098 36.1271 112.253C35.0024 111.409 34.1147 110.288 33.55 109C29.3652 100.705 24.2957 92.8859 18.43 85.6802C14.67 81.1502 10.68 76.8102 5.56 73.8002C2.92 72.2502 0.87 70.4602 0 67.4802V64.3702Z" fill="#DAF5F3"/>
</svg>
